<mxfile host="Electron" agent="Mozilla/5.0 (Macintosh; Intel Mac OS X 10_15_7) AppleWebKit/537.36 (KHTML, like Gecko) draw.io/27.0.5 Chrome/134.0.6998.205 Electron/35.3.0 Safari/537.36" version="27.0.5">
  <diagram name="Страница — 1" id="Klg_JhIq9pXu_pQqgqu4">
    <mxGraphModel dx="1357" dy="1036" grid="1" gridSize="10" guides="1" tooltips="1" connect="1" arrows="1" fold="1" page="1" pageScale="1" pageWidth="827" pageHeight="1169" math="0" shadow="0">
      <root>
        <mxCell id="0" />
        <mxCell id="1" parent="0" />
        <mxCell id="hzWNpvFSlPesFBmcluT6-16" style="edgeStyle=orthogonalEdgeStyle;rounded=0;orthogonalLoop=1;jettySize=auto;html=1;entryX=0;entryY=0.5;entryDx=0;entryDy=0;" edge="1" parent="1" source="hzWNpvFSlPesFBmcluT6-1" target="hzWNpvFSlPesFBmcluT6-3">
          <mxGeometry relative="1" as="geometry" />
        </mxCell>
        <mxCell id="hzWNpvFSlPesFBmcluT6-17" value="Send HL7 &lt;br&gt;Message" style="edgeLabel;html=1;align=center;verticalAlign=middle;resizable=0;points=[];" vertex="1" connectable="0" parent="hzWNpvFSlPesFBmcluT6-16">
          <mxGeometry x="-0.1" y="2" relative="1" as="geometry">
            <mxPoint as="offset" />
          </mxGeometry>
        </mxCell>
        <mxCell id="hzWNpvFSlPesFBmcluT6-1" value="" style="rounded=0;whiteSpace=wrap;html=1;fillColor=none;" vertex="1" parent="1">
          <mxGeometry x="60" y="270" width="140" height="310" as="geometry" />
        </mxCell>
        <mxCell id="hzWNpvFSlPesFBmcluT6-2" value="" style="rounded=0;whiteSpace=wrap;html=1;fillColor=none;" vertex="1" parent="1">
          <mxGeometry x="710" y="270" width="130" height="310" as="geometry" />
        </mxCell>
        <mxCell id="hzWNpvFSlPesFBmcluT6-18" style="edgeStyle=orthogonalEdgeStyle;rounded=0;orthogonalLoop=1;jettySize=auto;html=1;entryX=0.25;entryY=0;entryDx=0;entryDy=0;exitX=0.231;exitY=1.022;exitDx=0;exitDy=0;exitPerimeter=0;" edge="1" parent="1" source="hzWNpvFSlPesFBmcluT6-3" target="hzWNpvFSlPesFBmcluT6-9">
          <mxGeometry relative="1" as="geometry" />
        </mxCell>
        <mxCell id="hzWNpvFSlPesFBmcluT6-19" value="Put Message in Queue" style="edgeLabel;html=1;align=center;verticalAlign=middle;resizable=0;points=[];" vertex="1" connectable="0" parent="hzWNpvFSlPesFBmcluT6-18">
          <mxGeometry x="-0.271" y="-2" relative="1" as="geometry">
            <mxPoint as="offset" />
          </mxGeometry>
        </mxCell>
        <mxCell id="hzWNpvFSlPesFBmcluT6-21" style="edgeStyle=orthogonalEdgeStyle;rounded=0;orthogonalLoop=1;jettySize=auto;html=1;entryX=0;entryY=0.5;entryDx=0;entryDy=0;" edge="1" parent="1" source="hzWNpvFSlPesFBmcluT6-3" target="hzWNpvFSlPesFBmcluT6-2">
          <mxGeometry relative="1" as="geometry" />
        </mxCell>
        <mxCell id="hzWNpvFSlPesFBmcluT6-22" value="Send Fhir Patient" style="edgeLabel;html=1;align=center;verticalAlign=middle;resizable=0;points=[];" vertex="1" connectable="0" parent="hzWNpvFSlPesFBmcluT6-21">
          <mxGeometry x="-0.4" y="1" relative="1" as="geometry">
            <mxPoint as="offset" />
          </mxGeometry>
        </mxCell>
        <mxCell id="hzWNpvFSlPesFBmcluT6-3" value="" style="rounded=0;whiteSpace=wrap;html=1;fillColor=none;" vertex="1" parent="1">
          <mxGeometry x="290" y="270" width="320" height="90" as="geometry" />
        </mxCell>
        <mxCell id="hzWNpvFSlPesFBmcluT6-4" value="Input External System" style="text;html=1;align=center;verticalAlign=middle;whiteSpace=wrap;rounded=0;" vertex="1" parent="1">
          <mxGeometry x="90" y="220" width="110" height="30" as="geometry" />
        </mxCell>
        <mxCell id="hzWNpvFSlPesFBmcluT6-5" value="WF Engine" style="text;html=1;align=center;verticalAlign=middle;whiteSpace=wrap;rounded=0;" vertex="1" parent="1">
          <mxGeometry x="395" y="220" width="110" height="30" as="geometry" />
        </mxCell>
        <mxCell id="hzWNpvFSlPesFBmcluT6-6" value="Target System" style="text;html=1;align=center;verticalAlign=middle;whiteSpace=wrap;rounded=0;" vertex="1" parent="1">
          <mxGeometry x="720" y="220" width="110" height="30" as="geometry" />
        </mxCell>
        <mxCell id="hzWNpvFSlPesFBmcluT6-7" value="Telegram" style="rounded=1;whiteSpace=wrap;html=1;" vertex="1" parent="1">
          <mxGeometry x="70" y="320" width="120" height="60" as="geometry" />
        </mxCell>
        <mxCell id="hzWNpvFSlPesFBmcluT6-8" value="Message Queue" style="text;html=1;align=center;verticalAlign=middle;whiteSpace=wrap;rounded=0;" vertex="1" parent="1">
          <mxGeometry x="390" y="585" width="110" height="30" as="geometry" />
        </mxCell>
        <mxCell id="hzWNpvFSlPesFBmcluT6-20" value="Send new Event" style="edgeStyle=orthogonalEdgeStyle;rounded=0;orthogonalLoop=1;jettySize=auto;html=1;exitX=0.75;exitY=0;exitDx=0;exitDy=0;entryX=0.75;entryY=1;entryDx=0;entryDy=0;" edge="1" parent="1" source="hzWNpvFSlPesFBmcluT6-9" target="hzWNpvFSlPesFBmcluT6-3">
          <mxGeometry relative="1" as="geometry" />
        </mxCell>
        <mxCell id="hzWNpvFSlPesFBmcluT6-9" value="" style="rounded=0;whiteSpace=wrap;html=1;fillColor=none;" vertex="1" parent="1">
          <mxGeometry x="292.5" y="480" width="315" height="100" as="geometry" />
        </mxCell>
        <mxCell id="hzWNpvFSlPesFBmcluT6-10" value="REST External System" style="rounded=1;whiteSpace=wrap;html=1;" vertex="1" parent="1">
          <mxGeometry x="70" y="470" width="120" height="60" as="geometry" />
        </mxCell>
        <mxCell id="hzWNpvFSlPesFBmcluT6-24" style="edgeStyle=orthogonalEdgeStyle;rounded=0;orthogonalLoop=1;jettySize=auto;html=1;entryX=0;entryY=0.5;entryDx=0;entryDy=0;" edge="1" parent="1" source="hzWNpvFSlPesFBmcluT6-12" target="hzWNpvFSlPesFBmcluT6-23">
          <mxGeometry relative="1" as="geometry" />
        </mxCell>
        <mxCell id="hzWNpvFSlPesFBmcluT6-25" value="hl7 -&amp;gt; Fhir" style="edgeLabel;html=1;align=center;verticalAlign=middle;resizable=0;points=[];" vertex="1" connectable="0" parent="hzWNpvFSlPesFBmcluT6-24">
          <mxGeometry x="-0.18" y="3" relative="1" as="geometry">
            <mxPoint as="offset" />
          </mxGeometry>
        </mxCell>
        <mxCell id="hzWNpvFSlPesFBmcluT6-12" value="n8n" style="rounded=1;whiteSpace=wrap;html=1;" vertex="1" parent="1">
          <mxGeometry x="320" y="290" width="85" height="50" as="geometry" />
        </mxCell>
        <mxCell id="hzWNpvFSlPesFBmcluT6-13" value="Kafka" style="rounded=1;whiteSpace=wrap;html=1;" vertex="1" parent="1">
          <mxGeometry x="311" y="505" width="90" height="50" as="geometry" />
        </mxCell>
        <mxCell id="hzWNpvFSlPesFBmcluT6-14" value="Aidbox" style="rounded=1;whiteSpace=wrap;html=1;" vertex="1" parent="1">
          <mxGeometry x="715" y="395" width="120" height="60" as="geometry" />
        </mxCell>
        <mxCell id="hzWNpvFSlPesFBmcluT6-23" value="n8n code" style="rounded=1;whiteSpace=wrap;html=1;" vertex="1" parent="1">
          <mxGeometry x="505" y="290" width="85" height="50" as="geometry" />
        </mxCell>
        <mxCell id="hzWNpvFSlPesFBmcluT6-26" value="Kafka" style="rounded=1;whiteSpace=wrap;html=1;" vertex="1" parent="1">
          <mxGeometry x="440" y="505" width="90" height="50" as="geometry" />
        </mxCell>
        <mxCell id="hzWNpvFSlPesFBmcluT6-29" value="" style="rounded=0;whiteSpace=wrap;html=1;fillColor=none;" vertex="1" parent="1">
          <mxGeometry x="55" y="750" width="140" height="310" as="geometry" />
        </mxCell>
        <mxCell id="hzWNpvFSlPesFBmcluT6-30" value="" style="rounded=0;whiteSpace=wrap;html=1;fillColor=none;" vertex="1" parent="1">
          <mxGeometry x="405" y="750" width="685" height="310" as="geometry" />
        </mxCell>
        <mxCell id="hzWNpvFSlPesFBmcluT6-33" style="edgeStyle=orthogonalEdgeStyle;rounded=0;orthogonalLoop=1;jettySize=auto;html=1;entryX=0;entryY=0.5;entryDx=0;entryDy=0;exitX=1;exitY=0.5;exitDx=0;exitDy=0;" edge="1" parent="1" source="hzWNpvFSlPesFBmcluT6-29" target="hzWNpvFSlPesFBmcluT6-30">
          <mxGeometry relative="1" as="geometry">
            <mxPoint x="605" y="795.0666666666666" as="sourcePoint" />
          </mxGeometry>
        </mxCell>
        <mxCell id="hzWNpvFSlPesFBmcluT6-36" value="Input External System" style="text;html=1;align=center;verticalAlign=middle;whiteSpace=wrap;rounded=0;" vertex="1" parent="1">
          <mxGeometry x="85" y="700" width="110" height="30" as="geometry" />
        </mxCell>
        <mxCell id="hzWNpvFSlPesFBmcluT6-38" value="Aidbox" style="text;html=1;align=center;verticalAlign=middle;whiteSpace=wrap;rounded=0;" vertex="1" parent="1">
          <mxGeometry x="415" y="700" width="110" height="30" as="geometry" />
        </mxCell>
        <mxCell id="hzWNpvFSlPesFBmcluT6-39" value="Telegram" style="rounded=1;whiteSpace=wrap;html=1;" vertex="1" parent="1">
          <mxGeometry x="65" y="800" width="120" height="60" as="geometry" />
        </mxCell>
        <mxCell id="hzWNpvFSlPesFBmcluT6-43" value="REST External System" style="rounded=1;whiteSpace=wrap;html=1;" vertex="1" parent="1">
          <mxGeometry x="65" y="950" width="120" height="60" as="geometry" />
        </mxCell>
        <mxCell id="hzWNpvFSlPesFBmcluT6-48" value="RawHL7Message - custom resource" style="rounded=1;whiteSpace=wrap;html=1;" vertex="1" parent="1">
          <mxGeometry x="430" y="870" width="120" height="65" as="geometry" />
        </mxCell>
        <mxCell id="hzWNpvFSlPesFBmcluT6-55" style="edgeStyle=orthogonalEdgeStyle;rounded=0;orthogonalLoop=1;jettySize=auto;html=1;entryX=0.5;entryY=0;entryDx=0;entryDy=0;startArrow=classic;startFill=1;" edge="1" parent="1" source="hzWNpvFSlPesFBmcluT6-51" target="hzWNpvFSlPesFBmcluT6-48">
          <mxGeometry relative="1" as="geometry" />
        </mxCell>
        <mxCell id="hzWNpvFSlPesFBmcluT6-58" style="edgeStyle=orthogonalEdgeStyle;rounded=0;orthogonalLoop=1;jettySize=auto;html=1;entryX=0.5;entryY=0;entryDx=0;entryDy=0;" edge="1" parent="1" source="hzWNpvFSlPesFBmcluT6-51" target="hzWNpvFSlPesFBmcluT6-54">
          <mxGeometry relative="1" as="geometry" />
        </mxCell>
        <mxCell id="hzWNpvFSlPesFBmcluT6-51" value="Aidbox: Subscription или Cron Job" style="rounded=1;whiteSpace=wrap;html=1;" vertex="1" parent="1">
          <mxGeometry x="445" y="765" width="90" height="65" as="geometry" />
        </mxCell>
        <mxCell id="hzWNpvFSlPesFBmcluT6-52" value="Aidbox FHIR API" style="rounded=1;whiteSpace=wrap;html=1;" vertex="1" parent="1">
          <mxGeometry x="941" y="872.5" width="120" height="60" as="geometry" />
        </mxCell>
        <mxCell id="hzWNpvFSlPesFBmcluT6-59" style="edgeStyle=orthogonalEdgeStyle;rounded=0;orthogonalLoop=1;jettySize=auto;html=1;entryX=0;entryY=0.5;entryDx=0;entryDy=0;" edge="1" parent="1" source="hzWNpvFSlPesFBmcluT6-53" target="hzWNpvFSlPesFBmcluT6-52">
          <mxGeometry relative="1" as="geometry" />
        </mxCell>
        <mxCell id="hzWNpvFSlPesFBmcluT6-53" value="Преобразование в FHIR.Patient" style="rounded=1;whiteSpace=wrap;html=1;" vertex="1" parent="1">
          <mxGeometry x="780" y="875" width="100" height="60" as="geometry" />
        </mxCell>
        <mxCell id="hzWNpvFSlPesFBmcluT6-57" style="edgeStyle=orthogonalEdgeStyle;rounded=0;orthogonalLoop=1;jettySize=auto;html=1;entryX=0;entryY=0.5;entryDx=0;entryDy=0;" edge="1" parent="1" source="hzWNpvFSlPesFBmcluT6-54" target="hzWNpvFSlPesFBmcluT6-53">
          <mxGeometry relative="1" as="geometry" />
        </mxCell>
        <mxCell id="hzWNpvFSlPesFBmcluT6-54" value="Script: Парсинг HL7v2" style="rounded=1;whiteSpace=wrap;html=1;" vertex="1" parent="1">
          <mxGeometry x="600" y="875" width="120" height="60" as="geometry" />
        </mxCell>
      </root>
    </mxGraphModel>
  </diagram>
</mxfile>
